<?xml version="1.0" standalone="no"?>
<!DOCTYPE svg PUBLIC "-//W3C//DTD SVG 20010904//EN"
 "http://www.w3.org/TR/2001/REC-SVG-20010904/DTD/svg10.dtd">
<svg version="1.0" xmlns="http://www.w3.org/2000/svg" viewBox="0 0 300.000000 297.000000"
 preserveAspectRatio="xMidYMid meet">
<metadata>
Created by potrace 1.10, written by Peter Selinger 2001-2011
</metadata>
<g transform="translate(0.000000,297.000000) scale(0.100000,-0.100000)"
fill="#fff" stroke="none">
<path d="M1493 2873 c9 -2 23 -2 30 0 6 3 -1 5 -18 5 -16 0 -22 -2 -12 -5z"/>
<path d="M1569 2686 c-9 -9 3 -106 13 -106 6 0 8 9 5 20 -7 27 7 25 26 -2 8
-13 18 -20 23 -16 4 5 -1 18 -12 29 -14 16 -15 23 -6 26 6 3 12 11 12 18 0 20
-48 44 -61 31z m32 -29 c-1 -12 -15 -9 -19 4 -3 6 1 10 8 8 6 -3 11 -8 11 -12z"/>
<path d="M1691 2638 c-13 -27 -20 -52 -16 -56 3 -4 11 1 16 11 6 9 16 17 24
17 8 0 18 -8 24 -17 5 -10 13 -15 17 -11 6 7 -21 83 -35 99 -3 4 -17 -15 -30
-43z"/>
<path d="M845 2670 c-3 -6 1 -7 9 -4 18 7 21 14 7 14 -6 0 -13 -4 -16 -10z"/>
<path d="M1459 2619 c-9 -28 -12 -52 -7 -55 5 -3 12 3 15 15 6 24 38 28 47 5
3 -8 10 -13 15 -9 9 5 -37 94 -49 95 -3 0 -12 -23 -21 -51z"/>
<path d="M1910 2654 c0 -8 5 -14 11 -14 6 0 8 -9 5 -20 -3 -11 -9 -29 -12 -40
-4 -14 -1 -20 10 -20 11 0 16 9 16 28 0 28 12 54 24 53 3 -1 6 2 6 7 1 4 -13
10 -30 13 -22 5 -30 3 -30 -7z"/>
<path d="M1345 2618 c11 -55 16 -68 26 -68 6 0 7 9 4 21 -5 15 -1 25 14 35 28
20 16 44 -21 44 -28 0 -29 -2 -23 -32z m37 7 c0 -5 -5 -11 -11 -13 -6 -2 -11
4 -11 13 0 9 5 15 11 13 6 -2 11 -8 11 -13z"/>
<path d="M2007 2633 c-3 -5 -8 -23 -12 -41 -14 -65 45 -88 71 -27 7 19 14 42
14 50 0 26 -18 8 -25 -25 -7 -34 -22 -47 -37 -32 -6 6 -6 22 0 46 9 31 1 50
-11 29z"/>
<path d="M1147 2583 c-10 -3 -17 -10 -14 -16 2 -7 10 -29 18 -49 15 -44 35
-52 24 -11 -6 26 -6 27 13 10 20 -18 42 -23 42 -8 0 5 -9 13 -20 16 -16 5 -19
12 -14 27 5 18 -10 40 -26 37 -3 -1 -13 -3 -23 -6z m31 -24 c-2 -6 -8 -10 -13
-10 -5 0 -11 4 -13 10 -2 6 4 11 13 11 9 0 15 -5 13 -11z"/>
<path d="M2202 2526 c-12 -27 -19 -52 -16 -55 4 -3 8 -1 11 4 9 25 25 40 29
28 3 -7 13 -9 22 -5 16 6 16 4 0 -20 -10 -16 -14 -29 -8 -33 5 -3 18 12 30 34
23 46 27 72 8 53 -19 -19 -36 -14 -46 16 -9 27 -9 27 -30 -22z"/>
<path d="M1024 2515 c-15 -23 -15 -27 0 -50 30 -46 96 -26 96 29 0 46 -69 61
-96 21z m71 -25 c0 -28 -27 -39 -50 -20 -21 18 -1 52 28 48 16 -2 22 -10 22
-28z"/>
<path d="M950 2483 c0 -5 9 -19 20 -33 28 -36 26 -54 -6 -46 -19 5 -25 3 -22
-6 6 -18 49 -16 61 3 8 12 5 26 -12 53 -21 33 -41 47 -41 29z"/>
<path d="M2318 2463 c-45 -31 -48 -42 -11 -40 22 2 29 -3 31 -20 6 -38 22 -26
22 16 0 22 3 46 6 55 8 22 -5 19 -48 -11z m32 -13 c0 -5 -5 -10 -11 -10 -5 0
-7 5 -4 10 3 6 8 10 11 10 2 0 4 -4 4 -10z"/>
<path d="M852 2414 c-28 -20 -28 -28 5 -69 27 -33 27 -34 55 -17 15 9 28 20
28 24 0 12 -24 10 -38 -4 -16 -16 -28 -2 -14 15 15 17 3 30 -14 16 -8 -6 -14
-6 -18 0 -4 5 3 16 15 24 11 8 16 17 11 21 -5 3 -18 -2 -30 -10z"/>
<path d="M2420 2408 c0 -13 5 -29 12 -36 6 -6 8 -15 4 -19 -4 -4 -16 3 -26 17
-18 23 -20 24 -20 5 0 -26 18 -45 42 -45 24 0 34 28 19 52 -16 26 -3 38 15 14
7 -11 17 -16 21 -12 13 12 -13 41 -41 44 -22 3 -26 -1 -26 -20z"/>
<path d="M790 2341 c0 -31 -1 -32 -32 -26 l-33 7 35 -38 c19 -21 36 -41 38
-43 1 -2 5 -1 9 2 3 4 -1 15 -10 25 -21 23 -22 33 -2 26 10 -4 15 0 16 12 0
17 2 17 16 -3 15 -22 33 -31 33 -15 -1 4 -16 25 -35 46 l-35 39 0 -32z"/>
<path d="M2497 2342 c-24 -26 -21 -58 5 -77 28 -19 39 0 12 20 -15 11 -17 18
-8 31 15 25 29 27 47 9 18 -17 27 -19 27 -6 0 16 -30 41 -49 41 -10 0 -25 -8
-34 -18z"/>
<path d="M1203 2335 c-17 -7 -36 -23 -42 -34 -7 -11 -38 -137 -71 -278 -33
-142 -70 -284 -81 -315 -12 -32 -19 -64 -15 -73 9 -24 35 -17 47 13 83 205
210 334 391 393 60 20 94 24 188 24 94 0 128 -4 188 -24 205 -67 365 -249 404
-457 10 -56 16 -68 37 -76 67 -26 94 -45 116 -82 13 -22 23 -41 22 -43 -2 -1
-35 6 -74 16 -39 10 -76 16 -81 12 -6 -4 -14 -26 -18 -49 -6 -40 -6 -42 20
-42 20 0 26 5 26 21 0 13 5 19 13 16 48 -18 128 -27 148 -17 51 28 -10 147
-97 190 -50 25 -51 26 -67 92 -8 37 -27 93 -41 125 -14 32 -51 165 -81 296
-30 131 -62 249 -71 262 -21 32 -79 49 -113 32 -14 -7 -61 -59 -103 -116 l-77
-104 -156 0 -155 -1 -74 100 c-40 55 -80 104 -87 110 -24 20 -63 23 -96 9z
m128 -132 c35 -48 67 -92 71 -98 5 -8 -22 -26 -77 -54 -85 -42 -215 -151 -215
-180 0 -11 3 -11 17 0 15 13 15 12 2 -8 -8 -13 -17 -23 -21 -23 -5 0 -8 -5 -8
-11 0 -6 -9 -22 -20 -36 l-20 -26 4 24 c3 13 5 28 5 32 1 5 5 6 9 3 4 -2 6 11
4 31 -3 25 -1 34 7 29 16 -10 27 20 70 207 22 93 45 175 52 183 27 33 55 16
120 -73z m688 73 c6 -7 29 -91 51 -187 24 -103 47 -179 56 -185 20 -16 37 -76
24 -86 -5 -5 -8 -6 -6 -2 2 3 -7 17 -20 31 -16 17 -21 30 -15 36 23 23 -133
148 -241 193 l-47 20 70 97 c54 74 76 97 94 97 12 0 28 -6 34 -14z m-577 -198
c-7 -7 -12 -8 -12 -2 0 6 3 14 7 17 3 4 9 5 12 2 2 -3 -1 -11 -7 -17z m362 6
c4 -10 1 -14 -6 -12 -15 5 -23 28 -10 28 5 0 13 -7 16 -16z"/>
<path d="M2580 2260 c-11 -11 -20 -27 -20 -35 0 -21 36 -55 58 -55 23 0 52 30
52 53 0 21 -35 57 -55 57 -8 0 -24 -9 -35 -20z m56 -14 c15 -12 17 -18 8 -33
-16 -26 -41 -27 -54 -3 -9 16 -8 25 1 36 14 18 20 18 45 0z"/>
<path d="M2702 2177 c2 -8 -10 -25 -27 -39 -16 -15 -27 -30 -22 -34 4 -4 21 6
38 22 21 19 33 25 36 16 3 -6 9 -10 14 -7 5 4 2 17 -7 31 -17 26 -37 33 -32
11z"/>
<path d="M602 2168 c-7 -7 -12 -24 -12 -38 0 -33 17 -50 50 -50 33 0 50 17 50
50 0 33 -17 50 -50 50 -14 0 -31 -5 -38 -12z m63 -38 c0 -18 -6 -26 -23 -28
-13 -2 -25 3 -28 12 -10 26 4 48 28 44 17 -2 23 -10 23 -28z"/>
<path d="M2736 2071 c-22 -3 -41 -12 -44 -20 -3 -9 1 -11 16 -7 23 8 33 -10
25 -46 l-5 -23 20 24 c11 14 27 37 36 53 19 30 21 30 -48 19z m24 -21 c0 -5
-5 -10 -11 -10 -5 0 -7 5 -4 10 3 6 8 10 11 10 2 0 4 -4 4 -10z"/>
<path d="M510 2043 c0 -5 20 -20 45 -35 l44 -26 16 25 c11 17 14 28 7 35 -7 7
-12 3 -17 -11 -8 -26 -13 -26 -45 -1 -25 20 -50 26 -50 13z"/>
<path d="M414 1855 c-9 -23 3 -45 25 -45 23 0 32 18 19 43 -11 21 -37 22 -44
2z"/>
<path d="M2870 1855 c-15 -18 -6 -45 13 -45 20 0 40 27 33 45 -7 19 -30 19
-46 0z"/>
<path d="M356 1821 c-17 -28 33 -61 54 -36 8 9 6 17 -5 29 -18 18 -41 21 -49
7z"/>
<path d="M2910 1805 c-14 -17 -5 -35 19 -35 23 0 41 19 34 36 -7 18 -37 18
-53 -1z"/>
<path d="M1795 1780 c-18 -35 -20 -135 -2 -170 7 -14 21 -25 32 -25 42 0 56
145 19 203 -19 29 -30 28 -49 -8z m43 -90 c1 -47 -11 -80 -25 -67 -10 10 -9
108 1 133 8 18 8 18 16 -1 4 -11 8 -40 8 -65z"/>
<path d="M2812 1797 c-7 -8 -7 -18 -2 -27 5 -8 7 -25 3 -37 -4 -20 -1 -23 24
-23 35 0 53 16 53 46 0 43 -53 71 -78 41z m48 -42 c0 -8 -4 -15 -10 -15 -5 0
-10 7 -10 15 0 8 5 15 10 15 6 0 10 -7 10 -15z"/>
<path d="M438 1789 c-28 -16 -23 -67 6 -81 31 -14 60 -4 52 18 -4 9 -1 23 5
30 27 33 -21 58 -63 33z m30 -36 c0 -21 -2 -23 -10 -9 -5 9 -6 21 -3 26 10 16
13 12 13 -17z"/>
<path d="M351 1761 c-19 -12 -6 -41 19 -41 25 0 38 29 19 41 -8 5 -16 9 -19 9
-3 0 -11 -4 -19 -9z"/>
<path d="M2914 1745 c-4 -9 -2 -21 4 -27 16 -16 47 -5 47 17 0 26 -42 34 -51
10z"/>
<path d="M1344 1714 c-36 -17 -84 -64 -66 -64 6 0 14 5 17 10 11 18 83 50 113
50 16 0 46 -11 66 -25 20 -14 42 -25 47 -25 19 0 3 25 -31 48 -39 26 -100 29
-146 6z"/>
<path d="M374 1695 c-4 -9 -2 -21 4 -27 16 -16 47 -5 47 17 0 26 -42 34 -51
10z"/>
<path d="M2878 1698 c-9 -23 3 -38 29 -38 20 0 24 4 21 23 -3 25 -42 37 -50
15z"/>
<path d="M271 1654 c0 -11 3 -14 6 -6 3 7 2 16 -1 19 -3 4 -6 -2 -5 -13z"/>
<path d="M1002 1565 c0 -16 2 -22 5 -12 2 9 2 23 0 30 -3 6 -5 -1 -5 -18z"/>
<path d="M907 1537 c-8 -21 8 -39 29 -35 27 5 25 42 -2 46 -12 2 -24 -3 -27
-11z"/>
<path d="M1559 1515 c-15 -8 -29 -22 -31 -32 -4 -16 4 -18 94 -19 54 0 98 1
98 2 0 51 -101 82 -161 49z"/>
<path d="M855 1470 c-10 -11 -16 -22 -14 -24 2 -3 14 6 26 20 12 13 18 24 14
24 -4 0 -16 -9 -26 -20z"/>
<path d="M1963 1451 c-94 -23 -114 -25 -125 -14 -12 11 -17 11 -33 0 -17 -13
-17 -15 -2 -38 35 -48 16 -89 -41 -89 -60 0 -111 42 -112 90 0 15 -5 31 -12
38 -18 18 -48 -4 -48 -36 -1 -50 -51 -92 -112 -92 -56 0 -76 40 -43 87 14 19
13 23 -1 38 -15 15 -18 15 -35 -1 -17 -15 -26 -15 -137 5 -136 24 -132 24
-132 12 0 -10 6 -12 148 -37 50 -9 92 -20 92 -25 0 -5 -67 -9 -150 -9 -198 0
-201 -19 -3 -22 126 -3 148 -5 151 -19 2 -13 -17 -18 -118 -29 -84 -9 -120
-17 -120 -26 0 -9 10 -11 33 -8 229 33 212 32 241 7 51 -43 160 -28 199 27 14
20 14 20 33 -1 52 -57 149 -69 202 -24 l29 24 117 -10 c104 -10 139 -8 125 5
-2 3 -55 9 -118 15 -63 6 -116 13 -119 15 -13 13 15 26 57 26 96 0 231 13 231
23 0 5 -54 6 -143 2 -119 -6 -145 -5 -149 7 -4 10 15 18 76 32 132 29 157 36
151 46 -8 12 2 14 -132 -19z m-331 -85 c2 -12 -4 -20 -15 -22 -14 -2 -17 2
-12 14 4 9 8 23 8 30 1 18 15 1 19 -22z"/>
<path d="M791 1411 c-30 -55 8 -94 70 -72 43 15 49 7 10 -14 -41 -21 -83 -86
-85 -131 -2 -57 14 -61 151 -35 l120 23 51 -36 c28 -21 73 -45 99 -54 27 -9
49 -20 51 -25 1 -4 -9 -29 -23 -56 -22 -44 -69 -191 -62 -197 1 -1 14 0 28 3
21 4 28 13 39 56 14 55 53 141 76 168 12 14 22 15 62 6 63 -13 424 -12 487 1
50 11 50 10 88 -26 21 -20 66 -73 99 -117 46 -61 68 -82 92 -87 17 -3 32 -5
33 -4 6 6 -107 161 -150 206 -51 54 -55 60 -31 60 23 0 115 46 148 75 16 14
31 25 33 25 3 0 50 -9 106 -21 96 -19 102 -19 114 -3 7 10 10 21 5 26 -9 9
-187 48 -222 48 -14 0 -49 -17 -78 -39 -99 -75 -234 -103 -482 -103 -252 0
-385 29 -483 104 -51 39 -54 39 -114 34 -34 -3 -90 -12 -123 -21 -34 -9 -64
-14 -66 -12 -7 7 40 69 66 89 14 10 48 24 75 31 l50 12 -2 40 c-2 21 -7 43
-12 48 -5 5 -43 0 -89 -11 l-81 -19 -3 21 c-4 28 -34 32 -47 7z m205 -49 c1
-15 -4 -22 -18 -22 -10 0 -35 -7 -55 -15 -31 -13 -34 -13 -23 0 9 11 10 18 1
29 -9 11 -5 16 26 24 52 14 68 10 69 -16z m312 -283 c-2 -6 -8 -10 -13 -10 -5
0 -11 4 -13 10 -2 6 4 11 13 11 9 0 15 -5 13 -11z m657 1 c-3 -5 -15 -10 -26
-10 -10 0 -19 5 -19 10 0 6 12 10 26 10 14 0 23 -4 19 -10z"/>
<path d="M2324 1305 c-4 -9 -2 -21 4 -27 16 -16 47 -5 47 17 0 26 -42 34 -51
10z"/>
<path d="M2380 1241 c0 -6 4 -13 10 -16 6 -3 7 1 4 9 -7 18 -14 21 -14 7z"/>
<path d="M1458 823 c117 -2 306 -2 420 0 114 1 18 2 -213 2 -231 0 -324 -1
-207 -2z"/>
<path d="M1197 744 c-4 -4 -7 -94 -7 -199 l0 -192 25 0 c35 -1 43 19 51 125
l7 92 38 0 39 0 0 -70 c0 -38 2 -70 5 -70 2 0 15 5 28 11 30 14 37 47 37 176
0 70 -4 95 -16 107 -8 9 -17 16 -19 16 -2 0 -11 -7 -19 -16 -11 -10 -16 -34
-16 -69 0 -56 -8 -65 -56 -65 -22 0 -24 4 -25 48 -2 82 -11 107 -39 110 -14 2
-29 0 -33 -4z m194 -87 c-10 -9 -11 -8 -5 6 3 10 9 15 12 12 3 -3 0 -11 -7
-18z m-152 -14 c3 -86 -2 -208 -9 -226 -6 -14 -9 27 -9 116 -1 75 3 137 8 137
5 0 9 -12 10 -27z m154 -60 c-2 -26 -8 -52 -12 -56 -5 -5 -6 3 -4 16 3 14 0
27 -5 31 -7 4 -7 16 1 35 15 42 24 30 20 -26z"/>
<path d="M1901 634 c-11 -14 -27 -45 -37 -69 -37 -99 36 -201 120 -169 18 7
86 96 86 113 0 6 -16 -4 -35 -24 -20 -19 -40 -35 -46 -35 -17 0 -59 48 -59 68
0 13 9 22 28 27 44 10 72 34 72 59 0 56 -91 78 -129 30z m89 -9 c18 -21 3 -52
-30 -64 -29 -10 -30 -9 -24 17 14 59 31 74 54 47z m-85 -88 c-6 -41 -5 -45 34
-80 36 -33 39 -37 19 -37 -31 0 -42 9 -61 46 -11 22 -14 40 -8 60 4 16 6 35 4
42 -3 6 0 12 7 12 8 0 9 -14 5 -43z"/>
<path d="M1657 613 c-14 -22 -19 -116 -12 -229 6 -101 10 -126 24 -133 11 -6
23 -4 35 5 16 11 19 26 18 79 0 61 1 65 24 71 29 7 64 49 64 76 0 54 -67 128
-103 115 -7 -2 -19 2 -29 10 -9 8 -18 11 -21 6z m79 -41 c36 -24 40 -96 6
-134 -21 -25 -27 -22 -27 10 0 15 -4 51 -8 80 -8 52 0 64 29 44z m-38 -207 c0
-27 -4 -59 -8 -70 -11 -29 -18 31 -18 140 l1 90 13 -55 c8 -30 13 -77 12 -105z"/>
<path d="M1494 587 c-22 -19 -28 -34 -32 -78 -4 -48 -1 -59 19 -83 15 -16 38
-29 61 -33 36 -5 39 -4 53 30 8 20 15 57 15 82 0 38 -5 52 -29 76 -36 35 -52
36 -87 6z m87 -38 c13 -25 6 -96 -11 -113 -8 -8 -17 -5 -32 14 -16 19 -18 33
-14 64 4 21 9 43 12 48 10 15 33 8 45 -13z"/>
<path d="M1181 198 c-20 -49 -20 -82 0 -45 7 12 17 16 30 12 24 -8 49 11 49
36 0 16 -34 49 -51 49 -3 0 -16 -23 -28 -52z m59 7 c0 -19 -20 -29 -31 -18
-14 14 0 43 17 36 8 -3 14 -11 14 -18z"/>
<path d="M2092 232 c-10 -7 -8 -20 9 -60 21 -49 48 -75 34 -32 -5 14 0 26 16
38 18 16 20 22 10 40 -12 22 -45 29 -69 14z m51 -19 c9 -9 -13 -34 -24 -27
-14 8 -11 34 4 34 8 0 17 -3 20 -7z"/>
<path d="M1304 153 c-9 -30 -14 -56 -12 -57 15 -10 78 -22 78 -15 0 5 -7 12
-15 14 -8 3 -22 7 -30 10 -8 2 -12 11 -9 19 4 11 12 13 30 6 19 -7 24 -6 24 5
0 8 -9 15 -20 15 -12 0 -20 7 -20 16 0 12 7 14 30 9 42 -9 38 9 -5 22 l-35 11
-16 -55z"/>
<path d="M1950 180 c-27 -27 -26 -65 2 -84 30 -21 54 -20 78 4 26 26 25 54 -2
80 -28 25 -52 26 -78 0z m70 -15 c15 -18 10 -45 -12 -59 -35 -22 -74 27 -48
59 16 19 44 19 60 0z"/>
<path d="M1440 172 c0 -5 6 -12 14 -15 10 -4 12 -16 6 -49 -5 -24 -6 -45 -4
-48 10 -9 24 26 24 58 0 25 4 32 20 32 11 0 20 5 20 10 0 6 -11 10 -24 10 -13
0 -31 3 -40 6 -9 3 -16 2 -16 -4z"/>
<path d="M1850 146 c0 -17 -7 -25 -25 -28 -21 -4 -25 -1 -25 18 0 14 -6 24
-14 24 -11 0 -14 -9 -10 -37 9 -67 14 -84 24 -78 6 4 7 17 4 31 -6 22 -3 24
25 24 26 0 31 -4 31 -25 0 -14 5 -25 11 -25 8 0 10 13 5 38 -3 20 -6 47 -6 60
0 12 -4 22 -10 22 -5 0 -10 -11 -10 -24z"/>
<path d="M1668 149 c-25 -14 -22 -36 7 -55 32 -21 32 -36 0 -32 -13 2 -24 -1
-25 -7 0 -5 15 -10 33 -10 43 0 51 36 13 61 -33 21 -34 38 -1 30 27 -7 35 8 9
18 -19 7 -15 8 -36 -5z"/>
</g>
</svg>
